<svg id="visual" viewBox="0 0 960 540" width="960" height="540" xmlns="http://www.w3.org/2000/svg" xmlns:xlink="http://www.w3.org/1999/xlink" version="1.1"><path d="M0 71L14.5 69.2C29 67.3 58 63.7 87.2 66.3C116.3 69 145.7 78 174.8 76.3C204 74.7 233 62.3 262 64.2C291 66 320 82 349 95.5C378 109 407 120 436.2 112.8C465.3 105.7 494.7 80.3 523.8 80.3C553 80.3 582 105.7 611 118.3C640 131 669 131 698 117.5C727 104 756 77 785.2 75.2C814.3 73.3 843.7 96.7 872.8 108.3C902 120 931 120 945.5 120L960 120L960 0L945.5 0C931 0 902 0 872.8 0C843.7 0 814.3 0 785.2 0C756 0 727 0 698 0C669 0 640 0 611 0C582 0 553 0 523.8 0C494.7 0 465.3 0 436.2 0C407 0 378 0 349 0C320 0 291 0 262 0C233 0 204 0 174.8 0C145.7 0 116.3 0 87.2 0C58 0 29 0 14.5 0L0 0Z" fill="#6198ff"></path><path d="M0 109L14.5 116.2C29 123.3 58 137.7 87.2 140.3C116.3 143 145.7 134 174.8 134C204 134 233 143 262 144.8C291 146.7 320 141.3 349 151.3C378 161.3 407 186.7 436.2 185.8C465.3 185 494.7 158 523.8 156.2C553 154.3 582 177.7 611 192.8C640 208 669 215 698 198.8C727 182.7 756 143.3 785.2 139.8C814.3 136.3 843.7 168.7 872.8 187.5C902 206.3 931 211.7 945.5 214.3L960 217L960 118L945.5 118C931 118 902 118 872.8 106.3C843.7 94.7 814.3 71.3 785.2 73.2C756 75 727 102 698 115.5C669 129 640 129 611 116.3C582 103.7 553 78.3 523.8 78.3C494.7 78.3 465.3 103.7 436.2 110.8C407 118 378 107 349 93.5C320 80 291 64 262 62.2C233 60.3 204 72.7 174.8 74.3C145.7 76 116.3 67 87.2 64.3C58 61.7 29 65.3 14.5 67.2L0 69Z" fill="#3c80ff"></path><path d="M0 347L14.5 353.2C29 359.3 58 371.7 87.2 377.8C116.3 384 145.7 384 174.8 378.7C204 373.3 233 362.7 262 356.5C291 350.3 320 348.7 349 346.8C378 345 407 343 436.2 324C465.3 305 494.7 269 523.8 262.7C553 256.3 582 279.7 611 289.7C640 299.7 669 296.3 698 298.2C727 300 756 307 785.2 315C814.3 323 843.7 332 872.8 342C902 352 931 363 945.5 368.5L960 374L960 215L945.5 212.3C931 209.7 902 204.3 872.8 185.5C843.7 166.7 814.3 134.3 785.2 137.8C756 141.3 727 180.7 698 196.8C669 213 640 206 611 190.8C582 175.7 553 152.3 523.8 154.2C494.7 156 465.3 183 436.2 183.8C407 184.7 378 159.3 349 149.3C320 139.3 291 144.7 262 142.8C233 141 204 132 174.8 132C145.7 132 116.3 141 87.2 138.3C58 135.7 29 121.3 14.5 114.2L0 107Z" fill="#0066ff"></path><path d="M0 379L14.5 393.3C29 407.7 58 436.3 87.2 444.5C116.3 452.7 145.7 440.3 174.8 429.7C204 419 233 410 262 410.8C291 411.7 320 422.3 349 425C378 427.7 407 422.3 436.2 401.7C465.3 381 494.7 345 523.8 341.3C553 337.7 582 366.3 611 376.2C640 386 669 377 698 378C727 379 756 390 785.2 396.3C814.3 402.7 843.7 404.3 872.8 407.8C902 411.3 931 416.7 945.5 419.3L960 422L960 372L945.5 366.5C931 361 902 350 872.8 340C843.7 330 814.3 321 785.2 313C756 305 727 298 698 296.2C669 294.3 640 297.7 611 287.7C582 277.7 553 254.3 523.8 260.7C494.7 267 465.3 303 436.2 322C407 341 378 343 349 344.8C320 346.7 291 348.3 262 354.5C233 360.7 204 371.3 174.8 376.7C145.7 382 116.3 382 87.2 375.8C58 369.7 29 357.3 14.5 351.2L0 345Z" fill="#0059dd"></path><path d="M0 541L14.5 541C29 541 58 541 87.2 541C116.3 541 145.7 541 174.8 541C204 541 233 541 262 541C291 541 320 541 349 541C378 541 407 541 436.2 541C465.3 541 494.7 541 523.8 541C553 541 582 541 611 541C640 541 669 541 698 541C727 541 756 541 785.2 541C814.3 541 843.7 541 872.8 541C902 541 931 541 945.5 541L960 541L960 420L945.5 417.3C931 414.7 902 409.3 872.8 405.8C843.7 402.3 814.3 400.7 785.2 394.3C756 388 727 377 698 376C669 375 640 384 611 374.2C582 364.3 553 335.7 523.8 339.3C494.7 343 465.3 379 436.2 399.7C407 420.3 378 425.7 349 423C320 420.3 291 409.7 262 408.8C233 408 204 417 174.8 427.7C145.7 438.3 116.3 450.7 87.2 442.5C58 434.3 29 405.7 14.5 391.3L0 377Z" fill="#004cbb"></path></svg>